<svg xmlns="http://www.w3.org/2000/svg" width="96" height="96" viewBox="0 0 96 96">
  <defs>
    <linearGradient id="g" x1="16" x2="80" y1="18" y2="80" gradientUnits="userSpaceOnUse">
      <stop stop-color="#8EE28B"/>
      <stop offset=".55" stop-color="#35B866"/>
      <stop offset="1" stop-color="#09954C"/>
    </linearGradient>
  </defs>
  <path fill="url(#g)" d="M47.5 12C27.9 12 12 25.8 12 42.8c0 8.5 4 16.1 10.4 21.7l-3.1 13.6 14.3-7.2c4.3 1.7 9 2.6 13.9 2.6c19.6 0 35.5-13.8 35.5-30.7S67.1 12 47.5 12"/>
  <circle cx="43" cy="42" r="14" fill="#f8fff9"/>
  <path fill="#0f9d55" d="M65.5 63.7c-7.8.4-14.3 6.7-15 14.6c7.9-.3 14.3-6.7 15-14.6"/>
  <path fill="#5bcc70" d="M65.1 63.9c-7.1 2.5-11.5 7.4-13.6 13.3c3.8-5.6 8.4-9.4 13.6-13.3"/>
</svg>
