<svg xmlns="http://www.w3.org/2000/svg" width="28" height="28" viewBox="0 0 28 28"><path fill="#06c160" d="M11.4 6C6.8 6 3 9 3 12.8c0 2.1 1.1 3.9 2.9 5.2l-.7 2.5l3-1.4c1 .3 2.1.5 3.2.5c4.6 0 8.4-3 8.4-6.8S16 6 11.4 6m-3 5.3a1 1 0 1 1 0-2a1 1 0 0 1 0 2m5.9 0a1 1 0 1 1 0-2a1 1 0 0 1 0 2"/><path fill="#13a8ff" d="M18.2 12.4c3.8 0 6.8 2.5 6.8 5.6c0 1.7-.9 3.2-2.3 4.2l.6 2.1l-2.4-1.1c-.8.3-1.7.4-2.7.4c-3.8 0-6.8-2.5-6.8-5.6s3-5.6 6.8-5.6m-2.2 4.5a.8.8 0 1 0 0-1.6a.8.8 0 0 0 0 1.6m4.7 0a.8.8 0 1 0 0-1.6a.8.8 0 0 0 0 1.6"/></svg>
